<svg width="16" height="16" viewBox="0 0 16 16" fill="none" xmlns="http://www.w3.org/2000/svg">
<g clip-path="url(#clip0_16_38)">
<path d="M7.78053 2.65775C7.84319 2.2189 8.4768 2.2189 8.53945 2.65775L8.59229 3.02783C8.93945 5.45929 10.8244 7.38418 13.2481 7.78221C13.6408 7.84669 13.6408 8.41137 13.2481 8.47586C10.8244 8.87388 8.93945 10.7988 8.59229 13.2302L8.53945 13.6003C8.4768 14.0392 7.84319 14.0392 7.78053 13.6003L7.72769 13.2302C7.38054 10.7988 5.49556 8.87388 3.07191 8.47586C2.67922 8.41137 2.67922 7.84669 3.07191 7.78221C5.49556 7.38418 7.38054 5.45929 7.72769 3.02783L7.78053 2.65775Z" fill="#EAF6F8"/>
</g>
<defs>
<clipPath id="clip0_16_38">
<rect width="16" height="16" fill="white"/>
</clipPath>
</defs>
</svg>
